<svg width="43" height="41" viewBox="0 0 43 41" fill="none" xmlns="http://www.w3.org/2000/svg">
<path d="M40.1229 29.4761C40.1229 31.9909 39.0972 34.2741 37.4322 35.922C35.7738 37.5698 33.4761 38.5956 30.9452 38.5956C25.8768 38.5956 21.7741 34.5123 21.7741 29.4827C21.7741 26.9679 20.7485 24.6848 19.0834 23.0369C17.425 21.389 15.1273 20.3633 12.5964 20.3633C7.52802 20.3633 3.42535 16.28 3.42535 11.2504C3.42535 8.73562 4.45102 6.45244 6.11606 4.80458C7.77445 3.15673 10.0722 2.13095 12.6031 2.13095C15.1339 2.13095 17.4317 3.15011 19.0901 4.80458C20.7485 6.45244 21.7808 8.73562 21.7808 11.2504C21.7808 16.2866 25.8901 20.3633 30.9518 20.3633C33.4827 20.3633 35.7805 21.3824 37.4389 23.0369C39.0906 24.6848 40.1229 26.9613 40.1229 29.4761Z" fill="url(#paint0_linear_1_30)"/>
<path d="M40.1229 29.4761C40.1229 31.991 39.0972 34.2741 37.4322 35.922C37.1591 36.1933 36.8661 36.4514 36.5597 36.683C37.279 35.3859 37.6919 33.8837 37.6919 32.2954C37.6919 29.7806 36.6663 27.4974 35.0012 25.8495C33.3428 24.2017 31.0451 23.1759 28.5142 23.1759C23.4458 23.1759 19.3432 19.0927 19.3432 14.0631C19.3432 11.5482 18.3175 9.26507 16.6524 7.61721C14.9941 5.96936 12.6963 4.94358 10.1654 4.94358C8.0475 4.94358 6.10272 5.65832 4.5509 6.84954C4.97049 6.08848 5.49665 5.40022 6.10273 4.79137C7.76111 3.14351 10.0589 2.11774 12.5897 2.11774C15.1206 2.11774 17.4184 3.13689 19.0767 4.79137C20.7351 6.43923 21.7675 8.7224 21.7675 11.2372C21.7675 16.2734 25.8768 20.3501 30.9385 20.3501C33.4694 20.3501 35.7671 21.3692 37.4255 23.0237C39.0972 24.6782 40.1229 26.9613 40.1229 29.4761Z" fill="url(#paint1_linear_1_30)"/>
<path d="M27.2088 15.5591C25.4172 13.7789 24.5181 11.4428 24.5248 9.11329C24.5248 6.78379 25.4172 4.44767 27.2088 2.66746C30.792 -0.892977 36.5996 -0.892977 40.1828 2.66746C41.9744 4.44767 42.8735 6.78379 42.8669 9.11329C42.8669 11.4428 41.9744 13.7789 40.1828 15.5591C38.3912 17.3393 36.0402 18.2328 33.6958 18.2261C31.3514 18.2328 29.0004 17.3393 27.2088 15.5591Z" fill="url(#paint2_linear_1_30)"/>
<path d="M42.8668 9.11285C42.8668 11.6277 41.8412 13.9108 40.1761 15.5587C39.3902 16.3396 38.4711 16.9749 37.4455 17.4316C38.8907 15.8234 39.7699 13.6924 39.7699 11.3696C39.7699 8.86137 38.7442 6.57157 37.0792 4.92372C35.4208 3.27586 33.123 2.25008 30.5922 2.25008C29.2535 2.25008 27.9814 2.53465 26.8358 3.05085C26.949 2.91849 27.0756 2.78613 27.1955 2.66701C28.8538 1.01915 31.1516 -0.00662231 33.6825 -0.00662231C36.2133 -0.00662231 38.5111 1.01915 40.1695 2.66701C41.8412 4.31487 42.8668 6.60466 42.8668 9.11285Z" fill="url(#paint3_linear_1_30)"/>
<path d="M3.50525 38.1924C1.71367 36.4122 0.814544 34.0761 0.821204 31.7466C0.821204 29.4171 1.71367 27.081 3.50525 25.3008C7.08843 21.7403 12.8961 21.7403 16.4793 25.3008C18.2709 27.081 19.17 29.4171 19.1633 31.7466C19.1633 34.0761 18.2709 36.4122 16.4793 38.1924C14.6877 39.9726 12.3366 40.8661 9.99226 40.8594C7.64122 40.8661 5.29684 39.9726 3.50525 38.1924Z" fill="url(#paint4_linear_1_30)"/>
<path d="M19.1633 31.7461C19.1633 34.2609 18.1376 36.5441 16.4726 38.1919C15.6867 38.9728 14.7676 39.6082 13.7419 40.0648C15.1872 38.4566 16.0663 36.3257 16.0663 34.0028C16.0663 31.4946 15.0407 29.2048 13.3756 27.557C11.7172 25.9091 9.41947 24.8833 6.88861 24.8833C5.54991 24.8833 4.27781 25.1679 3.13226 25.6841C3.24549 25.5517 3.37203 25.4194 3.49191 25.3003C5.1503 23.6524 7.44806 22.6266 9.97893 22.6266C12.5098 22.6266 14.8075 23.6524 16.4659 25.3003C18.1376 26.9481 19.1633 29.2379 19.1633 31.7461Z" fill="url(#paint5_linear_1_30)"/>
<defs>
<linearGradient id="paint0_linear_1_30" x1="36.5419" y1="33.9369" x2="10.1758" y2="9.39589" gradientUnits="userSpaceOnUse">
<stop stop-color="#F7A000"/>
<stop offset="1" stop-color="#FFE115"/>
</linearGradient>
<linearGradient id="paint1_linear_1_30" x1="29.8155" y1="49.898" x2="22.9932" y2="20.0777" gradientUnits="userSpaceOnUse">
<stop stop-color="#F7A000" stop-opacity="0"/>
<stop offset="1" stop-color="#FFE115"/>
</linearGradient>
<linearGradient id="paint2_linear_1_30" x1="40.1818" y1="2.67204" x2="27.2922" y2="15.644" gradientUnits="userSpaceOnUse">
<stop stop-color="#0900FB"/>
<stop offset="1" stop-color="#00C3FF"/>
</linearGradient>
<linearGradient id="paint3_linear_1_30" x1="50.0704" y1="-1.64224" x2="29.6743" y2="11.9271" gradientUnits="userSpaceOnUse">
<stop stop-color="#0900FB"/>
<stop offset="1" stop-color="#00C3FF"/>
</linearGradient>
<linearGradient id="paint4_linear_1_30" x1="16.4771" y1="25.3047" x2="3.58746" y2="38.2767" gradientUnits="userSpaceOnUse">
<stop stop-color="#DC003E"/>
<stop offset="1" stop-color="#FF6D98"/>
</linearGradient>
<linearGradient id="paint5_linear_1_30" x1="26.3656" y1="20.9904" x2="5.9696" y2="34.5598" gradientUnits="userSpaceOnUse">
<stop stop-color="#DC003E"/>
<stop offset="1" stop-color="#FF6D98"/>
</linearGradient>
</defs>
</svg>
