<svg width="28" height="29" viewBox="0 0 28 29" fill="none" xmlns="http://www.w3.org/2000/svg">
<path d="M12.6147 25.73C11.5946 24.9114 2.12201 15.6997 2.01613 15.5989C1.59777 15.1806 1.33435 14.7467 1.26204 14.349C1.18715 13.9358 1.31369 13.5743 1.64942 13.2385C1.9619 12.9261 2.34411 12.7608 2.75472 12.7608C3.25572 12.7608 3.76964 12.9984 4.19833 13.4297L8.493 17.5565C8.5679 17.6288 8.66603 17.6649 8.76158 17.6649C8.8623 17.6649 8.96043 17.6262 9.03533 17.5513C9.18511 17.4015 9.18511 17.1588 9.03791 17.009L2.18141 9.9278C1.49447 9.24086 1.17166 8.18979 1.98772 7.37372C2.3002 7.06124 2.68241 6.89596 3.09303 6.89596C3.59403 6.89596 4.10794 7.13355 4.53664 7.56483L11.5507 14.4032C11.6256 14.4756 11.7237 14.5143 11.8218 14.5143C11.92 14.5143 12.0207 14.4756 12.0956 14.4007C12.2454 14.2509 12.2479 14.0081 12.0982 13.8558L3.67409 5.21993C3.28413 4.82997 3.04912 4.36254 3.00781 3.90803C2.96907 3.44576 3.13176 3.01707 3.4804 2.66843C3.79288 2.35595 4.17509 2.19067 4.5857 2.19067C5.08671 2.19067 5.60062 2.42826 6.02931 2.85695L14.6212 11.2345C14.6961 11.3068 14.7943 11.3456 14.8924 11.3456C14.9905 11.3456 15.0913 11.3068 15.1661 11.232C15.3159 11.0822 15.3185 10.8394 15.1687 10.6871L8.92944 4.27474C8.53691 3.8822 8.3019 3.41735 8.26316 2.96284C8.22443 2.50057 8.38712 2.07188 8.73576 1.72324C9.04824 1.41076 9.43045 1.24548 9.84106 1.24548C10.3421 1.24548 10.856 1.48307 11.2847 1.91435C13.5728 4.16111 19.546 10.0363 19.7475 10.2532C20.5145 10.7826 20.6694 9.98203 20.7082 9.46295C20.7521 8.85865 20.06 6.74876 20.4628 4.85063C21.1394 2.32754 23.0892 2.74074 23.1331 2.7614C24.2023 3.2624 23.9982 4.01133 23.6186 5.51691L23.5799 5.8139C23.1822 7.78175 25.9145 13.613 26.1159 14.0494C27.1876 16.3943 28.422 21.1487 24.334 25.2368C19.8534 29.7174 14.3062 27.4216 12.6147 25.73Z" fill="url(#paint0_radial_254_2892)"/>
<path d="M18.3633 28.2454C15.6155 28.2454 13.2784 26.9309 12.3564 26.0193C11.5274 25.3427 6.29533 20.2914 2.03423 16.1568C1.86121 15.9889 1.76049 15.8934 1.75016 15.8805C1.26723 15.3975 0.967666 14.894 0.882444 14.4188C0.784309 13.879 0.952171 13.391 1.3757 12.9648C1.76307 12.5775 2.23825 12.3735 2.75475 12.3735C3.36163 12.3735 3.9711 12.6524 4.4721 13.156L8.76161 17.2776L1.90253 10.1964C1.11228 9.40618 0.714582 8.09686 1.714 7.10002C2.10138 6.71265 2.57655 6.50863 3.09305 6.50863C3.69994 6.50863 4.3094 6.78754 4.8104 7.29113L11.8193 14.1244L3.39778 5.49113C2.94843 5.04178 2.67211 4.49171 2.62304 3.94422C2.57397 3.36058 2.77541 2.82601 3.20668 2.39473C3.59405 2.00736 4.06923 1.80334 4.58573 1.80334C5.19003 1.80334 5.7995 2.07967 6.30308 2.58325L14.8924 10.9583L8.65314 4.54594C8.20121 4.09401 7.92488 3.54394 7.8784 2.99645C7.82933 2.41539 8.03076 1.88082 8.46204 1.44954C8.84941 1.06217 9.32459 0.858154 9.84109 0.858154C10.448 0.858154 11.0574 1.13706 11.5584 1.64065L13.4204 3.46646C16.7389 6.7204 19.5125 9.44492 19.8095 9.74965C19.9541 9.86586 20.1426 9.90977 20.2227 9.87103C20.2743 9.8452 20.3311 9.72641 20.3208 9.47591C20.3053 9.03689 20.2433 8.49198 20.1788 7.91609C20.0497 6.75913 19.9154 5.56086 20.0832 4.77062C20.4499 3.39932 21.1705 2.81826 21.7076 2.56776C22.4462 2.22687 23.1615 2.34567 23.2984 2.41023C24.6413 3.04035 24.3753 4.09401 24.0086 5.5557L24.0009 5.59185L23.9595 5.894C23.691 7.21623 25.07 10.8705 26.4491 13.8481L26.4697 13.8894C27.3917 15.9037 29.0522 21.0713 24.6103 25.5131C22.5676 27.5507 20.357 28.2454 18.3633 28.2454ZM2.75475 13.1482C2.45001 13.1482 2.16077 13.2747 1.92318 13.5123C1.67785 13.7577 1.59263 13.9953 1.64428 14.2793C1.70109 14.5918 1.93093 14.9637 2.2899 15.3252C2.29248 15.3278 2.39578 15.4285 2.57397 15.599C8.62215 21.469 12.2738 24.9579 12.8574 25.4279L12.8884 25.4563C14.314 26.8819 19.6106 29.4127 24.0603 24.9631C28.1587 20.8647 26.6169 16.0793 25.7621 14.2096L25.744 14.1709C24.8557 12.2547 22.8362 7.60619 23.1951 5.75197L23.2545 5.36459C23.6522 3.78411 23.6755 3.45355 23.0014 3.12816C22.8026 3.092 21.377 2.91898 20.8321 4.95139C20.6953 5.5996 20.827 6.78496 20.9432 7.83087C21.0103 8.42226 21.0723 8.98265 21.0878 9.45008C21.1136 10.1861 20.765 10.4676 20.5532 10.5709C20.122 10.7801 19.608 10.6019 19.2878 10.3333L19.2542 10.3023C19.0967 10.1319 15.3495 6.45698 12.8703 4.02428L11.0058 2.1933C10.3705 1.55543 9.55185 1.44954 9.00178 1.99961C8.7332 2.26819 8.61182 2.58325 8.64023 2.93189C8.67122 3.29602 8.86749 3.67565 9.19547 4.00362L15.4477 10.4159C15.7421 10.7155 15.7421 11.2062 15.4425 11.5057C15.1558 11.7924 14.6497 11.7976 14.3553 11.5135L5.75818 3.13332C5.12288 2.49803 4.30165 2.39215 3.75417 2.94222C3.48559 3.2108 3.36421 3.52586 3.39262 3.8745C3.42619 4.23863 3.62246 4.62084 3.94785 4.94365L12.3745 13.5846C12.6715 13.8842 12.6689 14.3749 12.3693 14.6745C12.0827 14.9611 11.5765 14.9663 11.2821 14.6822L4.2655 7.84119C3.63021 7.20074 2.80898 7.09744 2.26149 7.64751C1.59263 8.31637 1.94901 9.14535 2.45518 9.6541L9.31684 16.7404C9.61124 17.04 9.60866 17.5281 9.30909 17.8251C9.01986 18.1143 8.51885 18.1169 8.22445 17.8354L3.92978 13.7086C3.56823 13.3445 3.15245 13.1482 2.75475 13.1482Z" fill="#EDA600"/>
<path d="M19.1303 10.0027C17.7125 12.8977 17.8958 16.9496 20.0238 20.2009C20.264 20.6399 20.6746 20.4256 20.4654 19.9737C17.8958 14.4756 20.5894 10.514 20.5894 10.514L19.1303 10.0027Z" fill="#EDA600"/>
<defs>
<radialGradient id="paint0_radial_254_2892" cx="0" cy="0" r="1" gradientUnits="userSpaceOnUse" gradientTransform="translate(8.61598 7.79722) rotate(-45) scale(23.5026)">
<stop offset="0.3533" stop-color="#FFCA28"/>
<stop offset="0.8723" stop-color="#FFB300"/>
</radialGradient>
</defs>
</svg>
