<svg width="260" height="29" viewBox="0 0 260 29" fill="none" xmlns="http://www.w3.org/2000/svg">
<path d="M0 20.421L8.0041 18.9817C8.67383 21.247 10.4053 22.3838 13.1904 22.3838C15.3548 22.3838 16.4411 21.8032 16.4411 20.65C16.4411 20.0448 16.1879 19.5787 15.6897 19.2352C15.1915 18.8999 14.293 18.5973 13.0026 18.3438C8.07761 17.3951 4.9168 16.1602 3.52017 14.639C2.12354 13.1179 1.42114 11.3187 1.42114 9.25776C1.42114 6.60801 2.42573 4.39989 4.43492 2.64157C6.44412 0.883251 9.33539 0 13.1088 0C18.826 0 22.6075 2.29808 24.4452 6.90243L17.3068 9.06966C16.5636 7.18867 15.0608 6.24817 12.7984 6.24817C10.9199 6.24817 9.98062 6.82882 9.98062 7.99831C9.98062 8.52171 10.193 8.92245 10.6177 9.21687C11.0424 9.50311 11.8673 9.78116 13.0843 10.0429C16.4492 10.7544 18.8341 11.3841 20.2471 11.932C21.6601 12.48 22.8362 13.4123 23.7836 14.7453C24.731 16.0702 25.2047 17.6323 25.2047 19.4315C25.2047 22.2775 24.0531 24.5838 21.7499 26.3503C19.4467 28.1168 16.4247 29 12.6759 29C5.83156 28.9918 1.60082 26.1376 0 20.421Z" fill="#1A2634"/>
<path d="M41.1312 7.60576V12.938H36.9577V20.6664C36.9577 21.7214 37.1537 22.3511 37.5539 22.5474C37.9541 22.7437 38.3625 22.85 38.7872 22.85C39.4487 22.85 40.2247 22.7355 41.1312 22.4983V28.3457C39.5141 28.6647 37.9214 28.8201 36.3614 28.8201C33.8377 28.8201 31.9837 28.2803 30.7994 27.1926C29.6151 26.1049 29.0189 24.3793 29.0189 21.9994L29.0434 19.546V12.9298H25.9153V7.59758H29.0434L29.1659 0.776935L36.9658 0.654266V7.59758H41.1312V7.60576Z" fill="#1A2634"/>
<path d="M64.2125 7.60577V28.5584H56.6167V25.1154C55.506 27.6997 53.3416 28.9918 50.1155 28.9918C48.1226 28.9918 46.5871 28.4357 45.4927 27.3317C44.4064 26.2276 43.8592 24.641 43.8592 22.5801V7.60577H52.0675V20.7891C52.0675 21.6151 52.1818 22.1957 52.4105 22.531C52.6392 22.8663 53.0802 23.0381 53.7336 23.0381C54.436 23.0381 54.9996 22.7846 55.4406 22.2857C55.8817 21.7868 56.1022 21.0835 56.1022 20.1757V7.60577H64.2125Z" fill="#1A2634"/>
<path d="M88.9599 28.5584H81.2661V25.7778C80.1308 27.9205 78.2523 28.9919 75.6306 28.9919C73.213 28.9919 71.261 28.0514 69.7582 26.1622C68.2554 24.273 67.504 21.5333 67.504 17.9349C67.504 14.5737 68.2554 11.8994 69.7663 9.92024C71.2773 7.94111 73.2702 6.95155 75.7531 6.95155C77.8276 6.95155 79.5346 7.74484 80.8741 9.32324V0.441681H88.9599V28.5584ZM80.8741 15.0889C80.8741 13.2079 80.0982 12.2674 78.5464 12.2674C77.4601 12.2674 76.7495 12.8644 76.4146 14.0584C76.0798 15.2525 75.9083 16.7164 75.9083 18.4501C75.9083 21.8441 76.774 23.537 78.4974 23.537C79.1589 23.537 79.7143 23.2671 80.1717 22.7355C80.6291 22.1958 80.8577 21.3861 80.8577 20.2821V15.0889H80.8741Z" fill="#1A2634"/>
<path d="M107.108 21.0426L114.761 21.5578C114.312 23.6187 113.152 25.3689 111.298 26.8246C109.436 28.2721 106.928 29 103.759 29C100.231 29 97.4213 27.9777 95.3223 25.9413C93.2232 23.905 92.1778 21.3697 92.1778 18.3519C92.1778 15.2197 93.2151 12.5781 95.2814 10.4191C97.356 8.26001 100.117 7.18048 103.571 7.18048C106.92 7.18048 109.623 8.19458 111.69 10.231C113.756 12.2673 114.785 15.0316 114.785 18.5319C114.785 18.8181 114.777 19.2188 114.761 19.7259H100.754C100.778 21.0426 101.015 22.024 101.456 22.6619C101.897 23.2998 102.73 23.6187 103.963 23.6187C105.744 23.6187 106.789 22.76 107.108 21.0426ZM106.553 15.6041C106.536 14.1892 106.258 13.2406 105.703 12.7499C105.148 12.2592 104.462 12.022 103.645 12.022C101.701 12.022 100.737 13.216 100.737 15.6041H106.553Z" fill="#1A2634"/>
<path d="M138.422 28.5584H130.214V15.3751C130.214 14.2874 130.042 13.6004 129.707 13.2978C129.372 12.9952 128.948 12.848 128.441 12.848C126.947 12.848 126.195 13.8948 126.195 15.9803V28.5665H117.987V7.60575H125.599V10.5744C126.726 8.30907 128.735 7.1723 131.627 7.1723C133.146 7.1723 134.436 7.46672 135.482 8.04737C136.527 8.62803 137.279 9.3886 137.736 10.3127C138.193 11.2369 138.414 12.848 138.414 15.1461V28.5584H138.422Z" fill="#1A2634"/>
<path d="M155.663 7.60576V12.938H151.49V20.6664C151.49 21.7214 151.686 22.3511 152.086 22.5474C152.486 22.7437 152.895 22.85 153.319 22.85C153.981 22.85 154.757 22.7355 155.663 22.4983V28.3457C154.046 28.6647 152.454 28.8201 150.894 28.8201C148.37 28.8201 146.516 28.2803 145.332 27.1926C144.147 26.1049 143.551 24.3793 143.551 21.9994L143.576 19.546V12.9298H140.447V7.59758H143.576L143.698 0.776935L151.498 0.654266V7.59758H155.663V7.60576Z" fill="#1A2634"/>
<path d="M193.046 0.441681V28.5584H184.421V17.616H177.838V28.5584H169.221V0.441681H177.838V10.7871H184.421V0.441681H193.046Z" fill="#1A2634"/>
<path d="M217.981 7.60577V28.5584H210.385V25.1154C209.275 27.6997 207.11 28.9918 203.884 28.9918C201.891 28.9918 200.356 28.4357 199.261 27.3317C198.175 26.2276 197.628 24.641 197.628 22.5801V7.60577H205.836V20.7891C205.836 21.6151 205.95 22.1957 206.179 22.531C206.408 22.8663 206.849 23.0381 207.502 23.0381C208.205 23.0381 208.768 22.7846 209.209 22.2857C209.65 21.7868 209.871 21.0835 209.871 20.1757V7.60577H217.981Z" fill="#1A2634"/>
<path d="M242.737 28.5584H234.528V15.3751C234.528 14.2874 234.357 13.6004 234.022 13.2978C233.687 12.9952 233.262 12.848 232.756 12.848C231.261 12.848 230.51 13.8948 230.51 15.9803V28.5665H222.302V7.60575H229.914V10.5744C231.041 8.30907 233.05 7.1723 235.941 7.1723C237.46 7.1723 238.751 7.46672 239.796 8.04737C240.842 8.62803 241.593 9.3886 242.05 10.3127C242.508 11.2369 242.728 12.848 242.728 15.1461V28.5584H242.737Z" fill="#1A2634"/>
<path d="M259.978 7.60576V12.938H255.804V20.6664C255.804 21.7214 256 22.3511 256.401 22.5474C256.801 22.7437 257.209 22.85 257.634 22.85C258.296 22.85 259.071 22.7355 259.978 22.4983V28.3457C258.361 28.6647 256.768 28.8201 255.208 28.8201C252.685 28.8201 250.831 28.2803 249.646 27.1926C248.462 26.1049 247.866 24.3793 247.866 21.9994L247.89 19.546V12.9298H244.762V7.59758H247.89L248.013 0.776935L255.813 0.654266V7.59758H259.978V7.60576Z" fill="#1A2634"/>
</svg>
